<svg width="50" height="50" viewBox="0 0 50 50" fill="none" xmlns="http://www.w3.org/2000/svg">
<g clip-path="url(#clip0_1_2)">
<mask id="mask0_1_2" style="mask-type:luminance" maskUnits="userSpaceOnUse" x="0" y="0" width="50" height="50">
<path d="M50 0H0V50H50V0Z" fill="white"/>
</mask>
<g mask="url(#mask0_1_2)">
<path d="M28.9063 36V40.625C28.9063 41.661 28.4947 42.6546 27.7621 43.3871C27.0296 44.1197 26.036 44.5312 25 44.5312C23.964 44.5312 22.9704 44.1197 22.2379 43.3871C21.5053 42.6546 21.0938 41.661 21.0938 40.625V36C19.5278 35.3994 18.1205 34.4476 16.98 33.2178C15.8396 31.988 14.9965 30.513 14.5156 28.9062H14.4531C13.5535 28.9078 12.6876 28.5645 12.0334 27.9469C11.3793 27.3293 10.9869 26.4844 10.9368 25.5862C10.8868 24.688 11.1829 23.8048 11.7644 23.1184C12.3458 22.4319 13.1683 21.9945 14.0625 21.8961V21.0938C14.0625 15.0531 18.9594 10.1562 25 10.1562C31.0406 10.1562 35.9375 15.0531 35.9375 21.0938V21.8961C36.8386 21.9933 37.6673 22.4347 38.2508 23.1282C38.8342 23.8217 39.1273 24.7138 39.0688 25.6182C39.0104 26.5226 38.6049 27.3695 37.937 27.9822C37.2691 28.5948 36.3905 28.9259 35.4844 28.9062C35.0036 30.5132 34.1605 31.9883 33.0201 33.2183C31.8797 34.4482 30.4723 35.3994 28.9063 36Z" fill="#D78774"/>
<mask id="mask1_1_2" style="mask-type:alpha" maskUnits="userSpaceOnUse" x="10" y="10" width="30" height="35">
<path d="M28.9063 36V40.625C28.9063 41.661 28.4947 42.6546 27.7621 43.3871C27.0296 44.1197 26.036 44.5312 25 44.5312C23.964 44.5312 22.9704 44.1197 22.2379 43.3871C21.5053 42.6546 21.0938 41.661 21.0938 40.625V36C19.5278 35.3994 18.1205 34.4476 16.98 33.2178C15.8396 31.988 14.9965 30.513 14.5156 28.9062H14.4531C13.5535 28.9078 12.6876 28.5645 12.0334 27.9469C11.3793 27.3293 10.9869 26.4844 10.9368 25.5862C10.8868 24.688 11.1829 23.8048 11.7644 23.1184C12.3458 22.4319 13.1683 21.9945 14.0625 21.8961V21.0938C14.0625 15.0531 18.9594 10.1562 25 10.1562C31.0406 10.1562 35.9375 15.0531 35.9375 21.0938V21.8961C36.8386 21.9933 37.6673 22.4347 38.2508 23.1282C38.8342 23.8217 39.1273 24.7138 39.0688 25.6182C39.0104 26.5226 38.6049 27.3695 37.937 27.9822C37.2691 28.5948 36.3905 28.9259 35.4844 28.9062C35.0036 30.5132 34.1605 31.9883 33.0201 33.2183C31.8797 34.4482 30.4723 35.3994 28.9063 36Z" fill="white"/>
</mask>
<g mask="url(#mask1_1_2)">
<g style="mix-blend-mode:overlay" opacity="0.364">
<path d="M25 10.1562C31.0406 10.1562 35.9375 15.0531 35.9375 21.0938V25.7812C35.9375 31.8219 31.0406 36.7188 25 36.7188C18.9594 36.7188 14.0625 31.8219 14.0625 25.7812V21.0938C14.0625 15.0531 18.9594 10.1562 25 10.1562Z" fill="white"/>
</g>
</g>
<path fill-rule="evenodd" clip-rule="evenodd" d="M18.75 22.2656C18.75 22.4195 18.7803 22.5719 18.8392 22.7141C18.8981 22.8563 18.9844 22.9854 19.0932 23.0943C19.2021 23.2031 19.3312 23.2894 19.4734 23.3483C19.6156 23.4072 19.768 23.4375 19.9219 23.4375C20.0758 23.4375 20.2282 23.4072 20.3703 23.3483C20.5125 23.2894 20.6417 23.2031 20.7505 23.0943C20.8593 22.9854 20.9457 22.8563 21.0045 22.7141C21.0634 22.5719 21.0938 22.4195 21.0938 22.2656C21.0937 21.9548 20.9703 21.6568 20.7505 21.437C20.5307 21.2172 20.2327 21.0938 19.9219 21.0938C19.6111 21.0938 19.313 21.2172 19.0932 21.437C18.8735 21.6568 18.75 21.9548 18.75 22.2656ZM28.9062 22.2656C28.9062 22.5764 29.0297 22.8745 29.2495 23.0943C29.4693 23.314 29.7673 23.4375 30.0781 23.4375C30.3889 23.4375 30.687 23.314 30.9068 23.0943C31.1265 22.8745 31.25 22.5764 31.25 22.2656C31.25 21.9548 31.1265 21.6568 30.9068 21.437C30.687 21.2172 30.3889 21.0938 30.0781 21.0938C29.7673 21.0938 29.4693 21.2172 29.2495 21.437C29.0297 21.6568 28.9062 21.9548 28.9062 22.2656Z" fill="#1B0640"/>
<path opacity="0.203" d="M25 14.8453C28.032 14.8453 30.8969 14.5515 33.5938 18.1406L32.1094 23.2125C31.632 24.1719 30.8313 24.4304 30.1852 23.8344C28.5523 22.3273 26.8242 21.5742 25 21.5742C23.1758 21.5742 21.4477 22.3273 19.8148 23.8344C19.1688 24.4304 18.3687 24.1719 17.8914 23.2125L16.4062 18.1406C19.1031 14.5515 21.968 14.8453 25 14.8453Z" fill="black"/>
<path d="M22.8844 10.318C23.0749 9.91831 23.3747 9.5808 23.7492 9.34451C24.1236 9.10822 24.5573 8.98282 25 8.98282C25.4427 8.98282 25.8764 9.10822 26.2508 9.34451C26.6253 9.5808 26.9251 9.91831 27.1156 10.318C31.8813 11.0656 35.5602 14.4078 35.9375 20.2476C34.9333 19.8314 33.8991 19.4913 32.8438 19.2305L32.1094 19.7008C31.8778 19.9712 31.5607 20.1543 31.2108 20.22C30.8609 20.2856 30.499 20.2298 30.1852 20.0617C28.5523 19.1867 26.8242 18.75 25 18.75C23.1758 18.75 21.4477 19.1875 19.8148 20.0617C19.5011 20.2296 19.1394 20.2853 18.7896 20.2197C18.4399 20.154 18.123 19.971 17.8914 19.7008L17.157 19.2305C16.1014 19.4915 15.067 19.8318 14.0625 20.2484C14.4398 14.4078 18.1187 11.0656 22.8844 10.318Z" fill="#F29C65"/>
<g style="mix-blend-mode:overlay" opacity="0.279">
<path d="M17.1562 19.2305C16.1009 19.4916 15.0667 19.8319 14.0625 20.2484C14.4945 13.568 19.2437 10.1562 25 10.1562C30.7563 10.1562 35.5055 13.5687 35.9375 20.2484C34.9333 19.8319 33.8991 19.4916 32.8438 19.2305L33.5938 18.75C30.8969 16.6664 28.032 15.625 25 15.625C21.968 15.625 19.1031 16.6664 16.4062 18.75L17.1562 19.2305Z" fill="black"/>
</g>
<g style="mix-blend-mode:lighten" opacity="0.203">
<path d="M32.3812 19.5266L32.1086 19.7008C31.877 19.971 31.5601 20.154 31.2104 20.2197C30.8606 20.2853 30.4989 20.2296 30.1851 20.0617C28.5523 19.1867 26.8242 18.75 25 18.75C23.1758 18.75 21.4477 19.1875 19.8148 20.0617C19.5011 20.2296 19.1394 20.2853 18.7896 20.2197C18.4399 20.154 18.123 19.971 17.8914 19.7008L17.6187 19.5266C18.2953 19.5797 19.3242 19.1523 19.8148 18.8898C21.4477 18.0148 23.1758 17.5781 25 17.5781C26.8242 17.5781 28.5523 18.0156 30.1851 18.8898C30.6758 19.1523 31.7047 19.5797 32.3812 19.5266Z" fill="white"/>
</g>
<path d="M33.5938 50H16.4063V43.75C16.406 42.1657 16.8436 40.6123 17.6708 39.2611C18.498 37.91 19.6826 36.8138 21.0938 36.0937V37.5C21.0938 38.536 21.5053 39.5296 22.2379 40.2621C22.9704 40.9947 23.964 41.4062 25 41.4062C26.036 41.4062 27.0296 40.9947 27.7621 40.2621C28.4947 39.5296 28.9062 38.536 28.9062 37.5V36.0937C30.3174 36.8138 31.502 37.91 32.3292 39.2611C33.1564 40.6123 33.594 42.1657 33.5938 43.75V50Z" fill="#7555CA"/>
<mask id="mask2_1_2" style="mask-type:alpha" maskUnits="userSpaceOnUse" x="16" y="36" width="18" height="14">
<path d="M33.5938 50H16.4063V43.75C16.406 42.1657 16.8436 40.6123 17.6708 39.2611C18.498 37.91 19.6826 36.8138 21.0938 36.0937V37.5C21.0938 38.536 21.5053 39.5296 22.2379 40.2621C22.9704 40.9947 23.964 41.4062 25 41.4062C26.036 41.4062 27.0296 40.9947 27.7621 40.2621C28.4947 39.5296 28.9062 38.536 28.9062 37.5V36.0937C30.3174 36.8138 31.502 37.91 32.3292 39.2611C33.1564 40.6123 33.594 42.1657 33.5938 43.75V50Z" fill="white"/>
</mask>
<g mask="url(#mask2_1_2)">
<path opacity="0.136" d="M24.7008 40.8203L25.7812 40.625L26.7242 41.0156L16.4062 46.0937L24.7008 40.8203Z" fill="black"/>
<g style="mix-blend-mode:overlay" opacity="0.261">
<path d="M25 35.1562H33.5938V71.875H16.4062V46.0937L26.832 40.9547L25 35.1562Z" fill="white"/>
</g>
</g>
<path d="M23.686 32.6C23.5351 32.5623 23.4054 32.4662 23.3254 32.3329C23.2454 32.1995 23.2217 32.0399 23.2594 31.8891C23.2971 31.7382 23.3932 31.6085 23.5265 31.5285C23.6598 31.4485 23.8195 31.4248 23.9703 31.4625C25.8711 31.9383 27.2242 31.7125 28.1016 30.8359C28.1552 30.7784 28.2199 30.7322 28.2918 30.7002C28.3637 30.6681 28.4412 30.6509 28.5199 30.6495C28.5986 30.6481 28.6767 30.6626 28.7497 30.6921C28.8227 30.7216 28.8889 30.7654 28.9446 30.8211C29.0002 30.8767 29.0441 30.943 29.0735 31.0159C29.103 31.0889 29.1175 31.167 29.1161 31.2457C29.1147 31.3244 29.0975 31.402 29.0655 31.4739C29.0334 31.5457 28.9873 31.6104 28.9297 31.6641C27.7234 32.8711 25.9516 33.1664 23.686 32.6Z" fill="#1B0640"/>
<path opacity="0.119" fill-rule="evenodd" clip-rule="evenodd" d="M27.907 26.0109C28.0711 26.5859 28.1203 27.0969 28.0594 27.5383C28.332 27.9625 28.5617 28.3516 28.7492 28.7047C29.0984 29.3633 29.4211 30.1242 29.7164 30.9859C29.7326 31.035 29.7584 31.0803 29.7923 31.1193C29.8261 31.1583 29.8674 31.1902 29.9136 31.2131C29.9599 31.2361 30.0102 31.2496 30.0618 31.253C30.1133 31.2564 30.165 31.2495 30.2138 31.2328C30.2627 31.216 30.3077 31.1898 30.3464 31.1555C30.385 31.1213 30.4165 31.0797 30.4389 31.0332C30.4614 30.9867 30.4745 30.9362 30.4773 30.8847C30.4801 30.8331 30.4727 30.7815 30.4555 30.7328C30.1801 29.9093 29.8405 29.1086 29.4398 28.3383C29.0703 27.643 28.5516 26.8273 27.8805 25.8891C27.8587 25.8584 27.8327 25.831 27.8031 25.8078C27.85 25.8664 27.8852 25.9344 27.907 26.0109ZM22.093 26.0109C22.1117 25.9444 22.1421 25.8817 22.1828 25.8258C22.1621 25.8446 22.1436 25.8655 22.1273 25.8883C21.4562 26.8281 20.9367 27.6437 20.5687 28.3391C20.1678 29.1094 19.8279 29.91 19.5523 30.7336C19.52 30.8313 19.5275 30.9378 19.5733 31.0299C19.619 31.1221 19.6993 31.1925 19.7966 31.2259C19.894 31.2592 20.0005 31.2528 20.0932 31.208C20.1858 31.1632 20.2571 31.0837 20.2914 30.9867C20.5536 30.2022 20.877 29.4394 21.2586 28.7055C21.4445 28.3555 21.6727 27.9695 21.9422 27.5492C21.8797 27.1055 21.9273 26.5898 22.093 26.0109Z" fill="black"/>
<g style="mix-blend-mode:overlay" opacity="0.36">
<path d="M22.8172 25.6086C22.6678 25.5659 22.5076 25.5843 22.3718 25.6598C22.236 25.7352 22.1357 25.8615 22.093 26.0109C21.9274 26.5898 21.8789 27.1047 21.9422 27.5484C22.1203 28.8015 23.1875 29.4922 25 29.4922C26.8188 29.4922 27.8852 28.7984 28.0594 27.5383C28.1203 27.0969 28.0711 26.5851 27.907 26.0109C27.886 25.9369 27.8505 25.8678 27.8027 25.8075C27.7549 25.7472 27.6957 25.6969 27.6284 25.6595C27.5611 25.6221 27.4871 25.5984 27.4107 25.5897C27.3342 25.5809 27.2568 25.5873 27.1828 25.6086C27.0334 25.6513 26.9071 25.7516 26.8317 25.8874C26.7563 26.0232 26.7378 26.1834 26.7805 26.3328C27.1891 27.7625 26.7109 28.3203 25 28.3203C23.2891 28.3203 22.8109 27.7633 23.2195 26.3328C23.2622 26.1834 23.2438 26.0232 23.1683 25.8874C23.0929 25.7516 22.9666 25.6513 22.8172 25.6086Z" fill="black"/>
</g>
<path fill-rule="evenodd" clip-rule="evenodd" d="M21.5727 28.6508C20.3242 28.9813 19.5312 30.1484 19.5312 31.4391V35.082C19.5312 35.8609 19.9172 36.593 20.607 36.9555C21.693 37.5258 23.4461 38.2812 25.1227 38.2812C26.7945 38.2812 28.4508 37.5289 29.4664 36.9578C30.1164 36.593 30.4688 35.8883 30.4688 35.1437V31.4391C30.4688 30.1477 29.6758 28.9813 28.4273 28.6508C27.4008 28.3797 26.1367 28.125 25 28.125C23.8633 28.125 22.5992 28.3797 21.5727 28.6508ZM21.8016 29.7523C21.175 29.9258 20.7734 30.5078 20.7734 31.157V33.243C20.7734 34.075 21.2117 34.85 21.9766 35.1781C22.8234 35.5414 23.9961 35.9375 25.0813 35.9375C26.1633 35.9375 27.3055 35.5437 28.1273 35.1812C28.8742 34.8516 29.2969 34.0875 29.2969 33.2711V31.1695C29.2969 30.5133 28.8875 29.9273 28.2555 29.757C27.4172 29.5305 26.1883 29.2664 25 29.2664C23.8188 29.2664 22.6188 29.5266 21.8016 29.7523Z" fill="#362C47"/>
</g>
</g>
<defs>
<clipPath id="clip0_1_2">
<rect width="50" height="50" fill="white"/>
</clipPath>
</defs>
</svg>
