<svg width="50" height="50" viewBox="0 0 50 50" fill="none" xmlns="http://www.w3.org/2000/svg">
<g clip-path="url(#clip0_1_37)">
<mask id="mask0_1_37" style="mask-type:luminance" maskUnits="userSpaceOnUse" x="0" y="0" width="50" height="50">
<path d="M50 0H0V50H50V0Z" fill="white"/>
</mask>
<g mask="url(#mask0_1_37)">
<path d="M28.9062 36V40.625C28.9062 41.661 28.4947 42.6546 27.7621 43.3871C27.0296 44.1197 26.036 44.5312 25 44.5312C23.964 44.5312 22.9704 44.1197 22.2379 43.3871C21.5053 42.6546 21.0937 41.661 21.0937 40.625V36C19.5278 35.3994 18.1204 34.4476 16.98 33.2178C15.8396 31.988 14.9965 30.513 14.5156 28.9062H14.4531C13.5535 28.9078 12.6875 28.5645 12.0334 27.9469C11.3793 27.3293 10.9869 26.4844 10.9368 25.5862C10.8868 24.688 11.1829 23.8048 11.7644 23.1184C12.3458 22.4319 13.1683 21.9945 14.0625 21.8961V21.0938C14.0625 15.0531 18.9594 10.1562 25 10.1562C31.0406 10.1562 35.9375 15.0531 35.9375 21.0938V21.8961C36.8386 21.9933 37.6673 22.4347 38.2508 23.1282C38.8342 23.8217 39.1273 24.7138 39.0688 25.6182C39.0104 26.5226 38.6049 27.3695 37.937 27.9822C37.2691 28.5948 36.3905 28.9259 35.4844 28.9062C35.0036 30.5132 34.1605 31.9883 33.0201 33.2183C31.8797 34.4482 30.4723 35.3994 28.9062 36Z" fill="#EEB4A4"/>
<mask id="mask1_1_37" style="mask-type:alpha" maskUnits="userSpaceOnUse" x="10" y="10" width="30" height="35">
<path d="M28.9062 36V40.625C28.9062 41.661 28.4947 42.6546 27.7621 43.3871C27.0296 44.1197 26.036 44.5312 25 44.5312C23.964 44.5312 22.9704 44.1197 22.2379 43.3871C21.5053 42.6546 21.0937 41.661 21.0937 40.625V36C19.5278 35.3994 18.1204 34.4476 16.98 33.2178C15.8396 31.988 14.9965 30.513 14.5156 28.9062H14.4531C13.5535 28.9078 12.6875 28.5645 12.0334 27.9469C11.3793 27.3293 10.9869 26.4844 10.9368 25.5862C10.8868 24.688 11.1829 23.8048 11.7644 23.1184C12.3458 22.4319 13.1683 21.9945 14.0625 21.8961V21.0938C14.0625 15.0531 18.9594 10.1562 25 10.1562C31.0406 10.1562 35.9375 15.0531 35.9375 21.0938V21.8961C36.8386 21.9933 37.6673 22.4347 38.2508 23.1282C38.8342 23.8217 39.1273 24.7138 39.0688 25.6182C39.0104 26.5226 38.6049 27.3695 37.937 27.9822C37.2691 28.5948 36.3905 28.9259 35.4844 28.9062C35.0036 30.5132 34.1605 31.9883 33.0201 33.2183C31.8797 34.4482 30.4723 35.3994 28.9062 36Z" fill="white"/>
</mask>
<g mask="url(#mask1_1_37)">
<g style="mix-blend-mode:overlay" opacity="0.364">
<path d="M25 10.1562C31.0406 10.1562 35.9375 15.0531 35.9375 21.0938V25.7812C35.9375 31.8219 31.0406 36.7188 25 36.7188C18.9594 36.7188 14.0625 31.8219 14.0625 25.7812V21.0938C14.0625 15.0531 18.9594 10.1562 25 10.1562Z" fill="white"/>
</g>
</g>
<path d="M20.3125 23.4375C20.6233 23.4375 20.9214 23.314 21.1411 23.0943C21.3609 22.8745 21.4844 22.5764 21.4844 22.2656C21.4844 21.9548 21.3609 21.6568 21.1411 21.437C20.9214 21.2172 20.6233 21.0938 20.3125 21.0938C20.0017 21.0938 19.7036 21.2172 19.4839 21.437C19.2641 21.6568 19.1406 21.9548 19.1406 22.2656C19.1406 22.5764 19.2641 22.8745 19.4839 23.0943C19.7036 23.314 20.0017 23.4375 20.3125 23.4375ZM29.6875 23.4375C29.9983 23.4375 30.2964 23.314 30.5161 23.0943C30.7359 22.8745 30.8594 22.5764 30.8594 22.2656C30.8594 21.9548 30.7359 21.6568 30.5161 21.437C30.2964 21.2172 29.9983 21.0938 29.6875 21.0938C29.3767 21.0938 29.0786 21.2172 28.8589 21.437C28.6391 21.6568 28.5156 21.9548 28.5156 22.2656C28.5156 22.5764 28.6391 22.8745 28.8589 23.0943C29.0786 23.314 29.3767 23.4375 29.6875 23.4375Z" fill="#1B0640"/>
<g opacity="0.801">
<path d="M22.6562 20.3125H17.9688V25H22.6562V20.3125ZM32.0312 20.3125H27.3438V25H32.0312V20.3125Z" fill="#1B0640"/>
</g>
<path fill-rule="evenodd" clip-rule="evenodd" d="M25.7812 19.5727C26.293 19.5727 26.7297 19.4164 27.2227 19.2391C27.8586 19.0109 28.5859 18.75 29.6875 18.75C30.9898 18.75 32.2914 19.0234 33.5938 19.5727L34.375 19.9836V21.2172L33.5938 21.6281V24.0953C33.5938 25.4578 32.5445 26.5625 31.25 26.5625H28.125C26.8305 26.5625 25.7812 25.4578 25.7812 24.0953V21.2172H24.2188V24.0953C24.2188 25.4578 23.1695 26.5625 21.875 26.5625H18.75C17.4555 26.5625 16.4062 25.4578 16.4062 24.0953V21.6281L15.625 21.2172V19.9836L16.4062 19.5727C17.7086 19.0234 19.0102 18.75 20.3125 18.75C21.4133 18.75 22.1414 19.0109 22.7773 19.2391C23.2695 19.4156 23.707 19.5727 24.2188 19.5727H25.7812ZM22.0648 20.7211C21.4055 20.4906 20.9516 20.3953 20.3125 20.3953C19.5352 20.3953 18.7555 20.5125 17.9688 20.7469V24.0961C17.9688 24.55 18.3188 24.9187 18.75 24.9187H21.875C22.3062 24.9187 22.6562 24.55 22.6562 24.0961V20.9305C22.493 20.8758 22.307 20.8086 22.0648 20.7211ZM27.3438 20.9313C27.507 20.8766 27.693 20.8102 27.9359 20.7227C28.5945 20.4906 29.0484 20.3953 29.6875 20.3953C30.4648 20.3953 31.2445 20.5125 32.0312 20.7469V24.0961C32.0312 24.55 31.6812 24.9187 31.25 24.9187H28.125C27.6938 24.9187 27.3438 24.55 27.3438 24.0961V20.9305V20.9313Z" fill="#1B0640"/>
<path d="M32.032 10.8094C32.0758 8.71563 33.8211 7.03125 35.9688 7.03125C38.143 7.03125 39.9063 8.75859 39.9063 10.8906C39.9063 10.9523 39.9039 11.0141 39.9008 11.0758C39.9148 13.5766 40.4539 16.607 41.407 18.75C39.6445 18.2766 38.0211 17.4844 36.5477 16.482C37.1794 18.0418 37.5028 19.7093 37.5 21.3922V22.4672C37.0326 22.1541 36.4966 21.9585 35.9375 21.8969V21.875C34.5258 20.3063 33.4922 18.3594 32.8359 16.0359C31.375 17.8195 29.2836 18.8539 26.5625 19.1406C22.0063 19.6203 18.1117 18.8852 14.8805 16.9359C14.3386 18.2551 14.0607 19.6677 14.0625 21.0938V21.8961C13.5034 21.9577 12.9674 22.1533 12.5 22.4664V21.3922C12.5 19.6523 12.8391 17.9938 13.4531 16.482C11.9797 17.4844 10.3563 18.2766 8.59375 18.75C9.54688 16.607 10.0859 13.5766 10.1 11.0758C10.097 11.0138 10.0954 10.9519 10.0953 10.8898C10.0953 8.75859 11.8578 7.03125 14.0313 7.03125C16.1781 7.03125 17.9234 8.71563 17.9672 10.8094C20.028 9.36548 22.4837 8.59183 25 8.59375C27.6078 8.59375 30.0289 9.41094 32.032 10.8094Z" fill="#362C47"/>
<g style="mix-blend-mode:overlay" opacity="0.259">
<path d="M32.0414 10.6109C35.3227 12.9258 37.5 17.0055 37.5 21.6516V22.4672C37.0326 22.1541 36.4966 21.9585 35.9375 21.8969V21.875C34.5258 20.3063 33.4922 18.3594 32.8359 16.0359C31.375 17.8195 29.2836 18.8539 26.5625 19.1406C22.0063 19.6203 18.1117 18.8852 14.8805 16.9359C14.3386 18.2551 14.0607 19.6677 14.0625 21.0938V21.8961C13.5034 21.9577 12.9674 22.1533 12.5 22.4664V21.6516C12.5 17.0055 14.6781 12.925 17.9586 10.6109C17.9633 10.6766 17.9664 10.743 17.968 10.8094C20.0285 9.36564 22.484 8.59199 25 8.59375C27.6078 8.59375 30.0289 9.41094 32.032 10.8094C32.0336 10.743 32.0367 10.6766 32.0414 10.6109Z" fill="white"/>
</g>
<path fill-rule="evenodd" clip-rule="evenodd" d="M17.9687 8.59375C17.2903 8.59364 16.6235 8.77023 16.0341 9.10614C15.4446 9.44205 14.9528 9.92569 14.6071 10.5094C14.2613 11.0932 14.0736 11.7569 14.0624 12.4353C14.0511 13.1137 14.2168 13.7832 14.543 14.3781C15.9539 12.1766 18.0117 10.4477 20.4383 9.47266C19.7415 8.90286 18.8688 8.59225 17.9687 8.59375ZM35.9375 12.5C35.9375 11.7611 35.728 11.0373 35.3331 10.4127C34.9383 9.78807 34.3744 9.28826 33.7069 8.97128C33.0394 8.65431 32.2957 8.53316 31.5621 8.6219C30.8285 8.71065 30.1351 9.00565 29.5625 9.47266C31.9891 10.4477 34.0461 12.1758 35.457 14.3781C35.7732 13.8027 35.9384 13.1566 35.9375 12.5Z" fill="#F55D81"/>
<path d="M21.0938 39.8438V40.2109C21.0938 41.2469 21.5053 42.2405 22.2379 42.9731C22.9704 43.7056 23.964 44.1172 25 44.1172C26.036 44.1172 27.0296 43.7056 27.7621 42.9731C28.4947 42.2405 28.9062 41.2469 28.9062 40.2109V39.8438C34.4242 41.0336 39.0078 45.1055 41.4062 50H8.59375C10.9922 45.1055 15.5758 41.0336 21.0938 39.8438Z" fill="#456DFF"/>
<path d="M22.6562 30.4688H27.3438V31.25C27.3438 31.8716 27.0968 32.4677 26.6573 32.9073C26.2177 33.3468 25.6216 33.5938 25 33.5938C24.3784 33.5938 23.7823 33.3468 23.3427 32.9073C22.9032 32.4677 22.6562 31.8716 22.6562 31.25V30.4688Z" fill="white"/>
<g style="mix-blend-mode:overlay" opacity="0.36">
<path d="M22.0703 25.7812C22.0703 25.6258 22.132 25.4768 22.2419 25.3669C22.3518 25.257 22.5008 25.1953 22.6562 25.1953C22.8117 25.1953 22.9607 25.257 23.0706 25.3669C23.1805 25.4768 23.2422 25.6258 23.2422 25.7812C23.2422 26.4344 23.9563 27.1484 25 27.1484C26.0437 27.1484 26.7578 26.4344 26.7578 25.7812C26.7578 25.6258 26.8195 25.4768 26.9294 25.3669C27.0393 25.257 27.1883 25.1953 27.3438 25.1953C27.4992 25.1953 27.6482 25.257 27.7581 25.3669C27.868 25.4768 27.9297 25.6258 27.9297 25.7812C27.9297 27.0813 26.6906 28.3203 25 28.3203C23.3094 28.3203 22.0703 27.0813 22.0703 25.7812Z" fill="black"/>
</g>
<path d="M25.0133 29.7266C24.8169 30.1975 24.4575 30.582 24.0009 30.8097C23.5442 31.0374 23.0209 31.093 22.5266 30.9664L18.5563 29.9508C18.393 29.9092 18.2476 29.8161 18.1416 29.6851C18.0356 29.5542 17.9748 29.3925 17.9682 29.2242C17.9617 29.0559 18.0096 28.89 18.1051 28.7512C18.2005 28.6123 18.3382 28.5081 18.4977 28.4539L22.5875 27.0586C23.0523 26.9001 23.5597 26.9221 24.0089 27.1204C24.4582 27.3187 24.8164 27.6787 25.0125 28.1289C25.2086 27.6785 25.567 27.3184 26.0164 27.1201C26.4658 26.9218 26.9734 26.8998 27.4383 27.0586L31.5281 28.4539C31.6873 28.5083 31.8247 28.6126 31.9198 28.7513C32.015 28.89 32.0628 29.0557 32.0562 29.2238C32.0496 29.3919 31.989 29.5533 31.8833 29.6842C31.7776 29.815 31.6325 29.9082 31.4695 29.95L27.4992 30.9656C27.0049 31.0922 26.4816 31.0366 26.0249 30.8089C25.5683 30.5812 25.2089 30.1967 25.0125 29.7258L25.0133 29.7266Z" fill="#362C47"/>
</g>
</g>
<defs>
<clipPath id="clip0_1_37">
<rect width="50" height="50" fill="white"/>
</clipPath>
</defs>
</svg>
