<svg width="50" height="50" viewBox="0 0 50 50" fill="none" xmlns="http://www.w3.org/2000/svg">
<g clip-path="url(#clip0_1_68)">
<mask id="mask0_1_68" style="mask-type:luminance" maskUnits="userSpaceOnUse" x="0" y="0" width="50" height="50">
<path d="M50 0H0V50H50V0Z" fill="white"/>
</mask>
<g mask="url(#mask0_1_68)">
<path d="M28.9063 36V40.625C28.9063 41.661 28.4947 42.6546 27.7621 43.3871C27.0296 44.1197 26.036 44.5312 25 44.5312C23.964 44.5312 22.9704 44.1197 22.2379 43.3871C21.5053 42.6546 21.0938 41.661 21.0938 40.625V36C19.5278 35.3994 18.1205 34.4476 16.98 33.2178C15.8396 31.988 14.9965 30.513 14.5156 28.9062H14.4531C13.5535 28.9078 12.6876 28.5645 12.0334 27.9469C11.3793 27.3293 10.9869 26.4844 10.9368 25.5862C10.8868 24.688 11.1829 23.8048 11.7644 23.1184C12.3458 22.4319 13.1683 21.9945 14.0625 21.8961V21.0938C14.0625 15.0531 18.9594 10.1562 25 10.1562C31.0406 10.1562 35.9375 15.0531 35.9375 21.0938V21.8961C36.8386 21.9933 37.6673 22.4347 38.2508 23.1282C38.8342 23.8217 39.1273 24.7138 39.0688 25.6182C39.0104 26.5226 38.6049 27.3695 37.937 27.9822C37.2691 28.5948 36.3905 28.9259 35.4844 28.9062C35.0036 30.5132 34.1605 31.9883 33.0201 33.2183C31.8797 34.4482 30.4723 35.3994 28.9063 36Z" fill="#E7A391"/>
<mask id="mask1_1_68" style="mask-type:alpha" maskUnits="userSpaceOnUse" x="10" y="10" width="30" height="35">
<path d="M28.9063 36V40.625C28.9063 41.661 28.4947 42.6546 27.7621 43.3871C27.0296 44.1197 26.036 44.5312 25 44.5312C23.964 44.5312 22.9704 44.1197 22.2379 43.3871C21.5053 42.6546 21.0938 41.661 21.0938 40.625V36C19.5278 35.3994 18.1205 34.4476 16.98 33.2178C15.8396 31.988 14.9965 30.513 14.5156 28.9062H14.4531C13.5535 28.9078 12.6876 28.5645 12.0334 27.9469C11.3793 27.3293 10.9869 26.4844 10.9368 25.5862C10.8868 24.688 11.1829 23.8048 11.7644 23.1184C12.3458 22.4319 13.1683 21.9945 14.0625 21.8961V21.0938C14.0625 15.0531 18.9594 10.1562 25 10.1562C31.0406 10.1562 35.9375 15.0531 35.9375 21.0938V21.8961C36.8386 21.9933 37.6673 22.4347 38.2508 23.1282C38.8342 23.8217 39.1273 24.7138 39.0688 25.6182C39.0104 26.5226 38.6049 27.3695 37.937 27.9822C37.2691 28.5948 36.3905 28.9259 35.4844 28.9062C35.0036 30.5132 34.1605 31.9883 33.0201 33.2183C31.8797 34.4482 30.4723 35.3994 28.9063 36Z" fill="white"/>
</mask>
<g mask="url(#mask1_1_68)">
<g style="mix-blend-mode:overlay" opacity="0.364">
<path d="M25 10.1562C31.0406 10.1562 35.9375 15.0531 35.9375 21.0938V25.7812C35.9375 31.8219 31.0406 36.7188 25 36.7188C18.9594 36.7188 14.0625 31.8219 14.0625 25.7812V21.0938C14.0625 15.0531 18.9594 10.1562 25 10.1562Z" fill="white"/>
</g>
</g>
<path d="M18.4625 21.8781C18.3598 22.058 18.3327 22.2713 18.3872 22.4711C18.4417 22.6709 18.5733 22.8409 18.7531 22.9437C19.3234 23.2695 19.9109 23.4375 20.5078 23.4375C21.1047 23.4375 21.693 23.2695 22.2625 22.9437C22.4372 22.8384 22.5637 22.6689 22.6151 22.4714C22.6664 22.274 22.6385 22.0643 22.5373 21.8872C22.4361 21.7101 22.2696 21.5796 22.0734 21.5236C21.8773 21.4676 21.667 21.4905 21.4875 21.5875C21.1453 21.7828 20.8219 21.875 20.5078 21.875C20.1938 21.875 19.8703 21.7828 19.5281 21.5875C19.3483 21.4848 19.135 21.4577 18.9352 21.5122C18.7353 21.5667 18.5653 21.6983 18.4625 21.8781ZM27.8375 21.8781C27.7348 22.058 27.7077 22.2713 27.7622 22.4711C27.8167 22.6709 27.9483 22.8409 28.1281 22.9437C28.6984 23.2695 29.2859 23.4375 29.8828 23.4375C30.4797 23.4375 31.068 23.2695 31.6375 22.9437C31.8122 22.8384 31.9387 22.6689 31.9901 22.4714C32.0414 22.274 32.0135 22.0643 31.9123 21.8872C31.8111 21.7101 31.6446 21.5796 31.4484 21.5236C31.2523 21.4676 31.042 21.4905 30.8625 21.5875C30.5203 21.7828 30.1969 21.875 29.8828 21.875C29.5688 21.875 29.2445 21.7828 28.9031 21.5875C28.7233 21.4848 28.51 21.4577 28.3102 21.5122C28.1103 21.5667 27.9403 21.6983 27.8375 21.8781Z" fill="#1B0640"/>
<path d="M14.8406 17.0344C16.4523 13.0031 20.3938 10.1562 25 10.1562C29.6062 10.1562 33.5469 13.0039 35.1594 17.0344L35.3438 17.1844C35.4751 17.2926 35.5676 17.4407 35.607 17.6062L36.0969 19.6688C36.1149 19.7458 36.109 19.8265 36.0801 19.9001C36.0513 19.9738 36.0007 20.0369 35.9352 20.0812C35.8696 20.1255 35.7922 20.1488 35.7131 20.1481C35.634 20.1474 35.557 20.1228 35.4922 20.0773C32.0227 17.6297 28.525 16.4062 25 16.4062C21.4742 16.4062 17.9805 17.6305 14.5188 20.0797C14.4541 20.1256 14.3769 20.1507 14.2976 20.1516C14.2183 20.1526 14.1406 20.1294 14.0748 20.0852C14.009 20.0409 13.9582 19.9776 13.9292 19.9038C13.9002 19.83 13.8944 19.7491 13.9125 19.6719L14.3938 17.6094C14.4325 17.442 14.5253 17.2921 14.6578 17.1828L14.8406 17.0344Z" fill="#E15C66"/>
<g style="mix-blend-mode:overlay" opacity="0.255">
<path d="M25 13.2812C30.0391 13.2812 34.3844 16.4414 35.3477 17.1937C35.4781 17.297 35.5694 17.4417 35.6062 17.6039L36.0898 19.6367C36.175 19.9945 35.7539 20.2805 35.4469 20.0789C33.6367 18.8867 29.3461 16.4063 25 16.4063C20.6516 16.4063 16.3672 18.8898 14.5633 20.0805C14.257 20.2828 13.8367 19.9984 13.9195 19.6414L14.3945 17.6062C14.4306 17.4426 14.5219 17.2964 14.6531 17.1922C15.6203 16.4375 19.9641 13.2812 25 13.2812Z" fill="black"/>
</g>
<path d="M21.0938 38.2812V40.625C21.0938 41.661 21.5053 42.6546 22.2379 43.3871C22.9704 44.1197 23.964 44.5312 25 44.5312C26.036 44.5312 27.0296 44.1197 27.7621 43.3871C28.4947 42.6546 28.9062 41.661 28.9062 40.625V38.2812L34.0992 39.8789C35.5364 40.3211 36.7939 41.2125 37.6872 42.422C38.5805 43.6315 39.0625 45.0956 39.0625 46.5992V50H10.9375V46.5992C10.9375 45.0956 11.4195 43.6315 12.3128 42.422C13.2061 41.2125 14.4636 40.3211 15.9008 39.8789L21.0938 38.2812Z" fill="#F3B63A"/>
<mask id="mask2_1_68" style="mask-type:alpha" maskUnits="userSpaceOnUse" x="10" y="38" width="30" height="12">
<path d="M21.0938 38.2812V40.625C21.0938 41.661 21.5053 42.6546 22.2379 43.3871C22.9704 44.1197 23.964 44.5312 25 44.5312C26.036 44.5312 27.0296 44.1197 27.7621 43.3871C28.4947 42.6546 28.9062 41.661 28.9062 40.625V38.2812L34.0992 39.8789C35.5364 40.3211 36.7939 41.2125 37.6872 42.422C38.5805 43.6315 39.0625 45.0956 39.0625 46.5992V50H10.9375V46.5992C10.9375 45.0956 11.4195 43.6315 12.3128 42.422C13.2061 41.2125 14.4636 40.3211 15.9008 39.8789L21.0938 38.2812Z" fill="white"/>
</mask>
<g mask="url(#mask2_1_68)">
<g style="mix-blend-mode:overlay" opacity="0.404">
<path fill-rule="evenodd" clip-rule="evenodd" d="M14.0625 50H17.1875V39.4828L15.9008 39.8789C15.2489 40.0793 14.6296 40.3735 14.0625 40.7523V50ZM34.0992 39.8789L32.8125 39.4828V50H35.9375V40.7523C35.3704 40.3735 34.7511 40.0793 34.0992 39.8789ZM26.5625 50H29.6875V43.4438C28.9836 44.6122 27.8694 45.4763 26.5625 45.8672V50ZM23.4375 50H20.3125V43.4438C21.0164 44.6122 22.1306 45.4763 23.4375 45.8672V50Z" fill="black"/>
</g>
</g>
<g style="mix-blend-mode:lighten" opacity="0.18">
<path d="M11.2477 44.5312C11.6175 43.3317 12.3012 42.2528 13.2281 41.4062H19.5867C19.7573 42.594 20.3147 43.6924 21.1727 44.5312H11.2477ZM39.0625 47.6562V50H10.9375V47.6562H39.0625ZM36.7719 41.4062C37.6988 42.2528 38.3825 43.3317 38.7523 44.5312H28.8273C29.6853 43.6924 30.2427 42.594 30.4133 41.4062H36.7719Z" fill="white"/>
</g>
<path d="M21.8781 32.7094C21.7865 32.6599 21.7057 32.5925 21.6405 32.5113C21.5753 32.4301 21.5269 32.3367 21.4983 32.2365C21.4697 32.1364 21.4615 32.0315 21.474 31.9281C21.4865 31.8247 21.5196 31.7249 21.5713 31.6345C21.6229 31.544 21.6922 31.4649 21.7749 31.4016C21.8576 31.3383 21.9521 31.2922 22.0529 31.266C22.1537 31.2398 22.2588 31.234 22.3618 31.2489C22.4649 31.2639 22.5639 31.2993 22.6531 31.3531C23.45 31.8086 24.2297 32.0313 25 32.0313C25.7703 32.0313 26.5492 31.8086 27.3469 31.3531C27.4361 31.2993 27.5351 31.2639 27.6382 31.2489C27.7412 31.234 27.8463 31.2398 27.9471 31.266C28.0479 31.2922 28.1424 31.3383 28.2251 31.4016C28.3078 31.4649 28.3771 31.544 28.4287 31.6345C28.4804 31.7249 28.5135 31.8247 28.526 31.9281C28.5385 32.0315 28.5303 32.1364 28.5017 32.2365C28.4731 32.3367 28.4247 32.4301 28.3595 32.5113C28.2943 32.5925 28.2135 32.6599 28.1219 32.7094C27.0969 33.2953 26.0531 33.5938 25 33.5938C23.9469 33.5938 22.9031 33.2953 21.8781 32.7094Z" fill="#1B0640"/>
<g style="mix-blend-mode:overlay" opacity="0.36">
<path d="M22.882 26.7477C22.8566 26.6744 22.8459 26.5967 22.8506 26.5193C22.8554 26.4418 22.8754 26.3661 22.9097 26.2965C22.944 26.2268 22.9917 26.1647 23.0502 26.1137C23.1086 26.0627 23.1767 26.0238 23.2503 25.9992C23.3239 25.9747 23.4017 25.9651 23.4791 25.9708C23.5564 25.9766 23.6319 25.9977 23.7011 26.0329C23.7702 26.068 23.8317 26.1166 23.882 26.1757C23.9322 26.2349 23.9702 26.3034 23.9938 26.3773C24.1758 26.9234 24.4758 27.1484 25 27.1484C25.5242 27.1484 25.825 26.9234 26.007 26.3773C26.0291 26.3017 26.0662 26.2312 26.1162 26.1703C26.1661 26.1093 26.2278 26.059 26.2976 26.0224C26.3674 25.9858 26.4439 25.9637 26.5225 25.9574C26.601 25.951 26.6801 25.9606 26.7548 25.9855C26.8296 26.0105 26.8986 26.0502 26.9576 26.1024C27.0167 26.1546 27.0646 26.2182 27.0985 26.2894C27.1324 26.3605 27.1516 26.4378 27.155 26.5165C27.1583 26.5953 27.1457 26.6739 27.118 26.7477C26.7797 27.7641 26.0391 28.3203 25 28.3203C23.961 28.3203 23.2203 27.7641 22.882 26.7477Z" fill="black"/>
</g>
<path d="M23.4375 33.9844H26.5625L26.0281 35.5867C25.9563 35.8026 25.8183 35.9903 25.6338 36.1234C25.4492 36.2565 25.2275 36.3281 25 36.3281C24.7725 36.3281 24.5508 36.2565 24.3662 36.1234C24.1817 35.9903 24.0437 35.8026 23.9719 35.5867L23.4375 33.9844Z" fill="#362C47"/>
</g>
</g>
<defs>
<clipPath id="clip0_1_68">
<rect width="50" height="50" fill="white"/>
</clipPath>
</defs>
</svg>
